<svg width="92" height="34" viewBox="0 0 92 34" fill="none" xmlns="http://www.w3.org/2000/svg" xmlns:xlink="http://www.w3.org/1999/xlink">
<g opacity="0.1">
<path d="M17,2.833C10.2,2.833 4.25,5.808 0,10.483L17,31.167L34,10.483C29.75,5.808 23.8,2.833 17,2.833Z" fill="#1D1B20"/>
</g>
<path d="M63.167,2.833L34.833,31.167L63.167,31.167L63.167,2.833L63.167,2.833Z" fill="#1D1B20"/>
<g opacity="0.3">
<path d="M87,2L81,2L81,5L78,5C76.895,5 76,6.007 76,7.25L76,29.75C76,30.993 76.895,32 78,32L90,32C91.105,32 92,30.993 92,29.75L92,7.25C92,6.007 91.105,5 90,5L87,5L87,2Z" fill="#1D1B20"/>
</g>
<path d="M76,18C76,19.167 76,28.733 76,29.9C76,31.06 76.895,32 78,32L90,32C91.105,32 92,31.06 92,29.9C92,28.733 92,19.167 92,18L76,18Z" fill="#1D1B20"/>
</svg>
