<svg width="22" height="34" viewBox="0 0 22 34" fill="none" xmlns="http://www.w3.org/2000/svg" xmlns:xlink="http://www.w3.org/1999/xlink">
<path d="M16.533,32.667C16.084,32.665 15.64,32.573 15.228,32.395C14.815,32.218 14.443,31.958 14.133,31.633L1.267,18.3C0.656,17.677 0.314,16.839 0.314,15.967C0.314,15.094 0.656,14.256 1.267,13.633L14.6,0.3C14.911,-0.011 15.28,-0.257 15.686,-0.426C16.092,-0.594 16.527,-0.68 16.967,-0.68C17.406,-0.68 17.841,-0.594 18.248,-0.426C18.654,-0.257 19.023,-0.011 19.333,0.3C19.644,0.611 19.891,0.98 20.059,1.386C20.227,1.792 20.314,2.227 20.314,2.667C20.314,3.106 20.227,3.541 20.059,3.948C19.891,4.354 19.644,4.723 19.333,5.033L8.333,16L18.933,27C19.554,27.625 19.903,28.469 19.903,29.35C19.903,30.231 19.554,31.076 18.933,31.7C18.618,32.013 18.243,32.26 17.831,32.426C17.419,32.592 16.978,32.674 16.533,32.667Z" fill="#000000"/>
</svg>
